<?xml version="1.0" encoding="utf-8"?>
<!-- Generator: Adobe Illustrator 16.0.0, SVG Export Plug-In . SVG Version: 6.00 Build 0)  -->
<!DOCTYPE svg PUBLIC "-//W3C//DTD SVG 1.1//EN" "http://www.w3.org/Graphics/SVG/1.1/DTD/svg11.dtd">
<svg version="1.1" id="Calque_1" xmlns="http://www.w3.org/2000/svg" xmlns:xlink="http://www.w3.org/1999/xlink" x="0px" y="0px"
	 width="109.5px" height="109.5px" viewBox="0 0 109.5 109.5" enable-background="new 0 0 109.5 109.5" xml:space="preserve">
<g>
	<path fill="none" stroke="#FF7F00" stroke-width="4" stroke-miterlimit="10" d="M54.375,89.413
		c-20.079,0-36.356-15.52-36.356-34.664s16.277-34.664,36.356-34.664"/>
	<path fill="none" stroke="#FF7F00" stroke-width="4" stroke-miterlimit="10" d="M79.658,79.659
		c-6.543,6.038-15.458,9.754-25.283,9.754"/>
	<path fill="none" stroke="#FF7F00" stroke-width="4" stroke-miterlimit="10" d="M90.73,54.749c0,9.776-4.244,18.608-11.072,24.91"
		/>
	<path fill="none" stroke="#FF7F00" stroke-width="4" stroke-miterlimit="10" d="M79.66,29.841
		c6.827,6.302,11.07,15.133,11.07,24.908"/>
	<path fill="none" stroke="#FF7F00" stroke-width="4" stroke-miterlimit="10" d="M54.375,20.085c9.826,0,18.742,3.717,25.285,9.756"
		/>
	<line fill="none" stroke="#FF7F00" stroke-width="4" x1="79.662" y1="79.662" x2="93.555" y2="93.555"/>
	<line fill="none" stroke="#FF7F00" stroke-width="4" x1="16.835" y1="16.835" x2="29.483" y2="29.483"/>
	<path fill="none" stroke="#FF7F00" stroke-width="4" d="M16.835,16.835"/>
	<line fill="none" stroke="#FF7F00" stroke-width="4" x1="29.125" y1="80.375" x2="16.362" y2="93.139"/>
	<line fill="none" stroke="#FF7F00" stroke-width="4" x1="93.082" y1="16.417" x2="79.659" y2="29.84"/>
	<line fill="none" stroke="#FF7F00" stroke-width="4" x1="90.73" y1="54.749" x2="107.902" y2="54.75"/>
	<path fill="none" stroke="#FF7F00" stroke-width="4" d="M90.73,54.749"/>
	<line fill="none" stroke="#FF7F00" stroke-width="4" x1="1.078" y1="54.749" x2="18.019" y2="54.749"/>
	<line fill="none" stroke="#FF7F00" stroke-width="4" x1="54.444" y1="89.412" x2="54.444" y2="108.293"/>
	<line fill="none" stroke="#FF7F00" stroke-width="4" x1="54.684" y1="1.625" x2="54.684" y2="19.499"/>
	<path fill="none" stroke="#FF7F00" stroke-width="4" d="M81.107,28.249"/>
</g>
</svg>
