<svg xmlns:svg="http://www.w3.org/2000/svg" xmlns="http://www.w3.org/2000/svg" xmlns:xlink="http://www.w3.org/1999/xlink" width="176.7" height="209.5" viewBox="0 0 626 742.5" id="svg4367" version="1.1"><defs id="defs4369"><linearGradient id="linearGradient4432"><stop offset="0" id="stop4434" style="stop-color:#c2c2c2;stop-opacity:1"/><stop offset="1" id="stop4436" style="stop-color:#7d7d7d;stop-opacity:1"/></linearGradient><linearGradient xlink:href="#linearGradient4432" id="linearGradient4438" x1="92.4" y1="508.4" x2="524.1" y2="508.4" gradientUnits="userSpaceOnUse"/><linearGradient xlink:href="#linearGradient4432" id="linearGradient4446" x1="627.1" y1="499.5" x2="479.2" y2="499.5" gradientUnits="userSpaceOnUse"/><linearGradient xlink:href="#linearGradient4432" id="linearGradient4454" x1="434.4" y1="334.1" x2="473.8" y2="105.8" gradientUnits="userSpaceOnUse"/></defs><metadata id="metadata4372"/><g id="layer1" transform="translate(-57.423929,-48.191929)"><path d="m125 600.2 379.9 155L523.8 312 92.9 261.6Z" id="path4386" fill="url(#linearGradient4438)"/><path d="M504.9 755.2 617.2 626.6 648 270 523.7 311.8Z" id="path4388" fill="url(#linearGradient4446)"/><path d="m648 269.9c-5.1 0-360.6-38.8-360.6-38.8L92.9 261.6 523.7 312.5Z" id="path4390" fill="url(#linearGradient4454)"/><g id="g4479"><path id="path4392" d="m181.8 367.7 12.1 182.1 55.8 18.9-8.4-189.3z" fill="#4948d0"/><path id="path4394" d="m307.9 393.4 5.7 197 65.7 22.1 0-204.8z" fill="#ff3737"/><path id="path4396" d="m241.4 379.5 66.5 14 5.7 197-63.9-21.7z" fill="#fefff7"/></g><path d="m244.2 253.8 221.7 24 23.5-8.1-219.5-21.2z" id="path4456" fill="#6d6d6d"/><path d="m425.3 83.6-167.2 135.1 21.9 39 156.5 16.9 64.7-40.8L425.3 83.6Z" id="path4460" fill="#ececec"/><text xml:space="preserve" x="231.8" y="375.6" id="text4467" transform="matrix(0.76124416,-0.59141516,0.52176269,0.90827841,0,0)" style="fill:#000;font-family:sans-serif;font-size:58.5;letter-spacing:2.2;line-height:125;text-align:center;text-anchor:middle;word-spacing:0"><tspan id="tspan4469" x="232.9" y="375.6" style="font-family:sans-serif;font-weight:bold;letter-spacing:2.2;text-align:center;text-anchor:middle">VOTE</tspan></text></g></svg>