<?xml version="1.0" encoding="utf-8"?>
<!-- Generator: Adobe Illustrator 16.0.0, SVG Export Plug-In . SVG Version: 6.00 Build 0)  -->
<!DOCTYPE svg PUBLIC "-//W3C//DTD SVG 1.1//EN" "http://www.w3.org/Graphics/SVG/1.1/DTD/svg11.dtd">
<svg version="1.1" id="Calque_2_copie_2_xA0_Image_1_"
	 xmlns="http://www.w3.org/2000/svg" xmlns:xlink="http://www.w3.org/1999/xlink" x="0px" y="0px" width="96px" height="93px"
	 viewBox="0 0 96 93" enable-background="new 0 0 96 93" xml:space="preserve">
<g>
	<path fill-rule="evenodd" clip-rule="evenodd" d="M52.5,6.75c0,4.479,0,8.957,0,13.958c4.22,0,8.006,0,11.979,0
		c0,2.471,0,4.422,0,6.874c-3.813,0-7.603,0-11.781,0c0,11.045,0,21.604,0,32.367c-2.592,0-4.78,0-7.372,0
		c0-10.687,0-21.253,0-32.181c-4.083,0-7.778,0-11.754,0c0-2.406,0-4.447,0-6.915c3.779,0,7.468,0,11.429,0
		c0-4.975,0-9.538,0-14.103C47.5,6.75,50,6.75,52.5,6.75z"/>
	<path fill-rule="evenodd" clip-rule="evenodd" d="M6.75,50.25c3.852,0,7.704,0,12.052,0c0-4.9,0-9.435,0-14.176
		c2.683,0,4.869,0,7.395,0c0,4.497,0,8.944,0,13.876c4.097,0,7.886,0,11.911,0c0,2.519,0,4.556,0,6.922c-3.799,0-7.501,0-11.858,0
		c0,11.003,0,21.69,0,32.378c-2.5,0-5,0-7.5,0c0-10.627,0-21.253,0-32.25c-4.137,0-8.068,0-12,0C6.75,54.75,6.75,52.5,6.75,50.25z"
		/>
	<g>
		<path fill-rule="evenodd" clip-rule="evenodd" d="M71.25,89.25c0-10.589,0-21.179,0-32.23c-4.175,0-7.968,0-11.924,0
			c0-2.412,0-4.364,0-6.8c3.803,0,7.593,0,11.71,0c0-4.908,0-9.353,0-14.08c2.606,0,4.874,0,7.499,0c0,4.58,0,9.029,0,13.921
			c4.136,0,7.935,0,11.93,0c0,2.388,0,4.339,0,6.728c-3.743,0-7.541,0-11.715,0c0,11.106,0,21.784,0,32.461
			C76.25,89.25,73.75,89.25,71.25,89.25z"/>
	</g>
</g>
<path fill-rule="evenodd" clip-rule="evenodd" fill="#FFFFFF" d="M6.75,57c3.932,0,7.863,0,12,0c0,10.997,0,21.623,0,32.25
	c-4,0-8,0-12,0C6.75,78.5,6.75,67.75,6.75,57z"/>
</svg>
