<?xml version="1.0" encoding="utf-8"?>
<!-- Generator: Adobe Illustrator 16.0.0, SVG Export Plug-In . SVG Version: 6.00 Build 0)  -->
<!DOCTYPE svg PUBLIC "-//W3C//DTD SVG 1.1//EN" "http://www.w3.org/Graphics/SVG/1.1/DTD/svg11.dtd">
<svg version="1.1" id="Calque_1_xA0_Image_1_" xmlns="http://www.w3.org/2000/svg" xmlns:xlink="http://www.w3.org/1999/xlink"
	 x="0px" y="0px" width="68.25px" height="143.25px" viewBox="0 0 68.25 143.25" enable-background="new 0 0 68.25 143.25"
	 xml:space="preserve">
<g>
	<path fill-rule="evenodd" clip-rule="evenodd" d="M3.875,4.225C9.394,6.463,14.96,8.588,20.42,10.958
		C35.495,17.5,50.524,24.144,66.452,31.134c-6.484,2.892-12.217,5.479-17.975,8.008c-10.047,4.414-20.074,8.875-30.189,13.123
		c-2.596,1.09-3.447,2.523-3.436,5.312c0.104,25.622,0.07,51.243,0.038,76.866c0,0,0.147,4.607,0.13,4.781
		c-3.491,0-7.627,0-11.145,0C3.875,94.224,3.875,49.225,3.875,4.225z"/>
</g>
</svg>
